<?xml version="1.0" encoding="UTF-8"?> <svg xmlns="http://www.w3.org/2000/svg" width="281" height="240" viewBox="0 0 281 240" fill="none"> <path fill-rule="evenodd" clip-rule="evenodd" d="M121 110L119 110L119 24.1015C97.026 42.073 83 69.3985 83 100C83 106.501 83.6329 112.853 84.8405 119L110 119L110 121L85.2553 121C90.0487 142.956 102.202 162.16 119 175.898L119 130L121 130L121 177.491C137.58 190.347 158.396 198 181 198C235.124 198 279 154.124 279 100C279 45.8761 235.124 2 181 2C158.396 2 137.58 9.65275 121 22.5087L121 110ZM121 -1.39876e-05L121 19.9927C137.713 7.43891 158.488 -3.49691e-06 181 -3.49691e-06C236.228 -3.91405e-06 281 44.7715 281 100C281 155.228 236.228 200 181 200C158.488 200 137.713 192.561 121 180.007L121 240L119 240L119 178.465C101.094 164.298 88.152 144.131 83.2087 121L-4.06165e-06 121L-3.88681e-06 119L82.8027 119C81.6195 112.849 81 106.497 81 100C81 68.1906 95.8521 39.8501 119 21.5347L119 -1.41625e-05L121 -1.39876e-05ZM130 119L130 121L161.808 121C161.277 123.919 161 126.927 161 130C161 157.614 183.386 180 211 180C238.614 180 261 157.614 261 130C261 102.386 238.614 80 211 80C187.165 80 167.225 96.6777 162.214 119L130 119ZM163.842 121L240 121L240 119L164.266 119C169.239 97.7918 188.275 82 211 82C237.51 82 259 103.49 259 130C259 156.51 237.51 178 211 178C184.49 178 163 156.51 163 130C163 126.924 163.289 123.915 163.842 121Z" fill="#56615D"></path> </svg> 