<?xml version="1.0" encoding="UTF-8"?> <svg xmlns="http://www.w3.org/2000/svg" width="868" height="164" viewBox="0 0 868 164" fill="none"> <g clip-path="url(#clip0_10286_1632)"> <path d="M0.6 3.89999H137.22V34.92H86.62V159H51.42V34.92H0.6V3.89999ZM261.529 159H150.649V3.89999H261.529V34.92H186.069V65.94H250.529V96.74H186.069V127.98H261.529V159ZM313.108 159H272.408L324.768 85.74V76.94L272.408 3.89999H313.108L354.688 63.3L396.708 3.89999H437.408L384.828 76.94V85.74L437.408 159H396.708L354.688 99.38L313.108 159ZM561.8 68.14V3.89999H597.22V159H561.8V98.94H484.14V159H448.72V3.89999H484.14V68.14H561.8ZM612.742 81.34C612.742 36.24 642.662 1.69999 691.942 1.69999C741.002 1.69999 770.922 36.24 770.922 81.34C770.922 126.66 741.002 161.2 691.942 161.2C642.662 161.2 612.742 126.66 612.742 81.34ZM648.162 81.34C648.162 111.26 662.682 130.18 691.942 130.18C721.202 130.18 735.722 111.26 735.722 81.34C735.722 51.64 721.202 32.72 691.942 32.72C662.682 32.72 648.162 51.64 648.162 81.34Z" fill="#D6D6C2"></path> </g> <defs> <clipPath id="clip0_10286_1632"> <rect width="868" height="164" fill="white"></rect> </clipPath> </defs> </svg> 