<?xml version="1.0" encoding="UTF-8"?> <svg xmlns="http://www.w3.org/2000/svg" width="868" height="164" viewBox="0 0 868 164" fill="none"> <path d="M730.854 3.90002H867.474V34.92H816.874V159H781.674V34.92H730.854V3.90002Z" fill="#D6D6C2"></path> <path d="M569.617 81.34C569.617 36.2399 599.977 1.69995 649.257 1.69995C692.597 1.69995 721.197 25.4599 725.817 63.7399H690.617C687.097 43.2799 670.817 32.72 649.697 32.72C622.857 32.72 605.037 49.4399 605.037 81.34C605.037 113.46 622.857 130.18 649.697 130.18C670.817 130.18 687.097 119.4 690.617 98.94H725.817C721.197 137.44 692.597 161.2 649.257 161.2C599.977 161.2 569.617 126.66 569.617 81.34Z" fill="#D6D6C2"></path> <path d="M536.045 3.90002H587.745L494.245 81.56L587.745 159H536.045L471.365 104.22V159H435.945V3.90002H471.365V58.9L536.045 3.90002Z" fill="#D6D6C2"></path> <path d="M418.415 159H307.535V3.90002H418.415V34.92H342.955V65.94H407.415V96.74H342.955V127.98H418.415V159Z" fill="#D6D6C2"></path> <path d="M157.486 3.90002H294.106V34.92H243.506V159H208.306V34.92H157.486V3.90002Z" fill="#D6D6C2"></path> </svg> 