<?xml version="1.0" encoding="UTF-8"?> <svg xmlns="http://www.w3.org/2000/svg" width="615" height="123" viewBox="0 0 615 123" fill="none"> <g clip-path="url(#clip0_10336_1253)"> <path d="M2.175 -0.612507H109.298V23.71H69.6225V121H42.0225V23.71H2.175V-0.612507ZM206.335 121H119.395V-0.612507H206.335V23.71H147.168V48.0325H197.71V72.1825H147.168V96.6775H206.335V121ZM246.346 121H214.433L255.488 63.5575V56.6575L214.433 -0.612507H246.346L278.948 45.9625L311.896 -0.612507H343.808L302.581 56.6575V63.5575L343.808 121H311.896L278.948 74.2525L246.346 121ZM440.911 49.7575V-0.612507H468.683V121H440.911V73.9075H380.018V121H352.246V-0.612507H380.018V49.7575H440.911ZM480.423 60.1075C480.423 24.745 503.883 -2.33751 542.523 -2.33751C580.99 -2.33751 604.45 24.745 604.45 60.1075C604.45 95.6425 580.99 122.725 542.523 122.725C503.883 122.725 480.423 95.6425 480.423 60.1075ZM508.195 60.1075C508.195 83.5675 519.58 98.4025 542.523 98.4025C565.465 98.4025 576.85 83.5675 576.85 60.1075C576.85 36.82 565.465 21.985 542.523 21.985C519.58 21.985 508.195 36.82 508.195 60.1075Z" fill="#56615D"></path> </g> <defs> <clipPath id="clip0_10336_1253"> <rect width="615" height="123" fill="white"></rect> </clipPath> </defs> </svg> 