<?xml version="1.0" encoding="UTF-8"?> <svg xmlns="http://www.w3.org/2000/svg" width="559" height="123" viewBox="0 0 559 123" fill="none"> <g clip-path="url(#clip0_10336_1255)"> <path d="M3.91572 -0.612507H111.038V23.71H71.3632V121H43.7632V23.71H3.91572V-0.612507ZM208.076 121H121.136V-0.612507H208.076V23.71H148.909V48.0325H199.451V72.1825H148.909V96.6775H208.076V121ZM299.877 -0.612507H340.415L267.102 60.28L340.415 121H299.877L249.162 78.0475V121H221.39V-0.612507H249.162V42.5125L299.877 -0.612507ZM329.688 60.1075C329.688 24.745 353.493 -2.33751 392.133 -2.33751C426.116 -2.33751 448.541 16.2925 452.163 46.3075H424.563C421.803 30.265 409.038 21.985 392.478 21.985C371.433 21.985 357.461 35.095 357.461 60.1075C357.461 85.2925 371.433 98.4025 392.478 98.4025C409.038 98.4025 421.803 89.95 424.563 73.9075H452.163C448.541 104.095 426.116 122.725 392.133 122.725C353.493 122.725 329.688 95.6425 329.688 60.1075ZM451.76 -0.612507H558.883V23.71H519.208V121H491.608V23.71H451.76V-0.612507Z" fill="#56615D"></path> </g> <defs> <clipPath id="clip0_10336_1255"> <rect width="559" height="123" fill="white"></rect> </clipPath> </defs> </svg> 