<?xml version="1.0" encoding="UTF-8"?> <svg xmlns="http://www.w3.org/2000/svg" width="41" height="40" viewBox="0 0 41 40" fill="none"> <path d="M35.978 12.9837C35.6572 10.4979 34.214 8.97447 31.7283 8.73393C28.8417 8.49337 22.5874 8.33301 19.7008 8.33301C13.8475 8.33301 11.2014 8.49337 8.39499 8.73393C5.74893 8.97447 4.54619 10.1773 4.06509 12.6629C3.74435 14.3467 3.58398 15.9504 3.58398 19.7992C3.58398 23.2471 3.74435 25.3318 3.9849 27.1761C4.30563 29.6618 5.98949 31.0249 8.55535 31.2655C11.4419 31.506 17.2953 31.6663 20.1017 31.6663C22.9081 31.6663 29.0822 31.506 31.8887 31.1853C34.3744 30.8645 35.5772 29.5816 35.978 27.0959C35.978 27.0959 36.3789 24.4499 36.3789 19.7992C36.3789 17.1532 36.2185 14.6675 35.978 12.9837ZM16.5737 24.6102V15.1486L25.5542 19.7992L16.5737 24.6102Z" fill="white"></path> </svg> 