<?xml version="1.0" encoding="UTF-8"?> <svg xmlns="http://www.w3.org/2000/svg" width="175" height="80" viewBox="0 0 175 80" fill="none"> <g clip-path="url(#clip0_10286_1719)"> <path d="M64.6 44.69H79.09C79.09 52.34 83.32 56.21 94.48 56.21C104.65 56.21 107.98 52.34 107.98 44.42C107.98 37.67 104.56 34.34 97.9 34.34C92.59 34.34 88.36 36.41 84.76 41L68.56 31.64V4.55H117.34V17.24H82.96V26.24L80.26 34.34L83.23 36.05C86.65 26.15 93.31 21.65 102.22 21.65C113.38 21.65 122.38 29.48 122.38 44.06C122.38 61.52 111.22 68.9 94.48 68.9C77.74 68.9 64.6 61.97 64.6 44.69ZM126.76 44.69H141.25C141.25 52.34 145.48 56.21 156.64 56.21C166.81 56.21 170.14 52.34 170.14 44.42C170.14 37.67 166.72 34.34 160.06 34.34C154.75 34.34 150.52 36.41 146.92 41L130.72 31.64V4.55H179.5V17.24H145.12V26.24L142.42 34.34L145.39 36.05C148.81 26.15 155.47 21.65 164.38 21.65C175.54 21.65 184.54 29.48 184.54 44.06C184.54 61.52 173.38 68.9 156.64 68.9C139.9 68.9 126.76 61.97 126.76 44.69Z" fill="#D6D6C2"></path> </g> <defs> <clipPath id="clip0_10286_1719"> <rect width="175" height="80" fill="white"></rect> </clipPath> </defs> </svg> 