<?xml version="1.0" encoding="UTF-8"?> <svg xmlns="http://www.w3.org/2000/svg" width="175" height="80" viewBox="0 0 175 80" fill="none"> <g clip-path="url(#clip0_10286_1723)"> <path d="M31.84 33.62H17.35C17.35 12.29 30.67 3.65 47.32 3.65C62.35 3.65 72.79 11.12 72.79 24.98C72.79 46.31 51.55 48.92 21.85 54.41V58.01L30.85 55.31H72.79V68H18.25V42.71C24.73 41.81 58.39 38.3 58.39 24.35C58.39 20.39 55.69 16.34 47.5 16.34C36.61 16.34 31.84 21.56 31.84 33.62ZM82.156 42.8L77.116 29.75C88.816 25.16 93.226 19.04 93.226 4.55H121.306V68H106.816V16.25L109.606 8.15H105.916C104.836 24.53 101.686 36.77 82.156 42.8ZM127.411 43.79H141.811C141.811 53.78 145.861 56.21 157.021 56.21C166.291 56.21 169.891 54.14 169.891 49.01C169.891 43.97 166.561 41.63 161.161 41.63H152.341V29.03H161.161C166.561 29.03 168.991 26.78 168.991 22.64C168.991 18.5 166.291 16.34 157.021 16.34C145.861 16.34 142.711 18.77 142.711 26.06H128.311C128.311 9.68 140.731 3.65 157.021 3.65C172.231 3.65 183.391 9.22999 183.391 20.84C183.391 30.38 176.461 32.18 168.361 33.53V37.13C176.461 38.21 184.291 39.56 184.291 50.81C184.291 63.32 172.231 68.9 157.021 68.9C140.731 68.9 127.411 62.87 127.411 43.79Z" fill="#D6D6C2"></path> </g> <defs> <clipPath id="clip0_10286_1723"> <rect width="175" height="80" fill="white"></rect> </clipPath> </defs> </svg> 