<?xml version="1.0" encoding="UTF-8"?> <svg xmlns="http://www.w3.org/2000/svg" width="175" height="80" viewBox="0 0 175 80" fill="none"> <g clip-path="url(#clip0_10286_1727)"> <path d="M4.5 36.77C4.5 16.97 13.23 1.75999 35.91 3.65L57.33 5.45V18.14L35.91 16.34C24.48 15.35 17.37 18.59 14.67 30.47L11.07 38.57H14.67C15.84 27.95 25.38 21.65 37.26 21.65C53.1 21.65 62.46 30.38 62.46 44.87C62.46 59 51.48 68.9 33.57 68.9C16.02 68.9 4.5 58.73 4.5 36.77ZM18.99 45.77C18.99 51.26 23.4 56.21 33.48 56.21C43.38 56.21 47.97 53.33 47.97 44.87C47.97 37.49 43.56 34.34 33.84 34.34C23.31 34.34 18.99 38.3 18.99 45.77ZM65.7391 43.79H80.1391C80.1391 53.78 84.1891 56.21 95.3491 56.21C104.619 56.21 108.219 54.14 108.219 49.01C108.219 43.97 104.889 41.63 99.4891 41.63H90.6691V29.03H99.4891C104.889 29.03 107.319 26.78 107.319 22.64C107.319 18.5 104.619 16.34 95.3491 16.34C84.1891 16.34 81.0391 18.77 81.0391 26.06H66.6391C66.6391 9.68 79.0591 3.65 95.3491 3.65C110.559 3.65 121.719 9.22999 121.719 20.84C121.719 30.38 114.789 32.18 106.689 33.53V37.13C114.789 38.21 122.619 39.56 122.619 50.81C122.619 63.32 110.559 68.9 95.3491 68.9C79.0591 68.9 65.7391 62.87 65.7391 43.79ZM127.811 43.79H142.211C142.211 53.78 146.261 56.21 157.421 56.21C166.691 56.21 170.291 54.14 170.291 49.01C170.291 43.97 166.961 41.63 161.561 41.63H152.741V29.03H161.561C166.961 29.03 169.391 26.78 169.391 22.64C169.391 18.5 166.691 16.34 157.421 16.34C146.261 16.34 143.111 18.77 143.111 26.06H128.711C128.711 9.68 141.131 3.65 157.421 3.65C172.631 3.65 183.791 9.22999 183.791 20.84C183.791 30.38 176.861 32.18 168.761 33.53V37.13C176.861 38.21 184.691 39.56 184.691 50.81C184.691 63.32 172.631 68.9 157.421 68.9C141.131 68.9 127.811 62.87 127.811 43.79Z" fill="#D6D6C2"></path> </g> <defs> <clipPath id="clip0_10286_1727"> <rect width="175" height="80" fill="white"></rect> </clipPath> </defs> </svg> 