<?xml version="1.0" encoding="UTF-8"?> <svg xmlns="http://www.w3.org/2000/svg" width="175" height="80" viewBox="0 0 175 80" fill="none"> <g clip-path="url(#clip0_10286_1731)"> <path d="M16.85 44.69H31.34C31.34 52.34 35.57 56.21 46.73 56.21C56.9 56.21 60.23 52.34 60.23 44.42C60.23 37.67 56.81 34.34 50.15 34.34C44.84 34.34 40.61 36.41 37.01 41L20.81 31.64V4.55H69.59V17.24H35.21V26.24L32.51 34.34L35.48 36.05C38.9 26.15 45.56 21.65 54.47 21.65C65.63 21.65 74.63 29.48 74.63 44.06C74.63 61.52 63.47 68.9 46.73 68.9C29.99 68.9 16.85 61.97 16.85 44.69ZM100.003 68H84.7034C84.7034 40.55 99.6434 24.98 122.953 18.14V14.54L114.853 17.24H77.1434V4.55H126.553V25.43C107.563 33.17 100.003 44.6 100.003 68ZM145.377 33.62H130.887C130.887 12.29 144.207 3.65 160.857 3.65C175.887 3.65 186.327 11.12 186.327 24.98C186.327 46.31 165.087 48.92 135.387 54.41V58.01L144.387 55.31H186.327V68H131.787V42.71C138.267 41.81 171.927 38.3 171.927 24.35C171.927 20.39 169.227 16.34 161.037 16.34C150.147 16.34 145.377 21.56 145.377 33.62Z" fill="#D6D6C2"></path> </g> <defs> <clipPath id="clip0_10286_1731"> <rect width="175" height="80" fill="white"></rect> </clipPath> </defs> </svg> 