<?xml version="1.0" encoding="UTF-8"?> <svg xmlns="http://www.w3.org/2000/svg" width="175" height="80" viewBox="0 0 175 80" fill="none"> <g clip-path="url(#clip0_10286_1735)"> <path d="M3.6 44.69H18.09C18.09 52.34 22.32 56.21 33.48 56.21C43.65 56.21 46.98 52.34 46.98 44.42C46.98 37.67 43.56 34.34 36.9 34.34C31.59 34.34 27.36 36.41 23.76 41L7.56 31.64V4.55H56.34V17.24H21.96V26.24L19.26 34.34L22.23 36.05C25.65 26.15 32.31 21.65 41.22 21.65C52.38 21.65 61.38 29.48 61.38 44.06C61.38 61.52 50.22 68.9 33.48 68.9C16.74 68.9 3.6 61.97 3.6 44.69ZM122.73 35.78C122.73 55.58 114 70.79 91.3202 68.9L69.9902 67.1V54.41L91.3202 56.21C102.84 57.2 109.86 53.96 112.56 42.08L116.16 33.98H112.56C111.48 44.6 101.85 50.9 89.9702 50.9C74.2202 50.9 64.8602 42.17 64.8602 27.68C64.8602 13.55 75.7502 3.65 93.7502 3.65C111.21 3.65 122.73 13.82 122.73 35.78ZM108.33 26.78C108.33 21.29 103.83 16.34 93.7502 16.34C83.9402 16.34 79.2602 19.22 79.2602 27.68C79.2602 35.06 83.7602 38.21 93.3902 38.21C103.92 38.21 108.33 34.25 108.33 26.78ZM127.041 44.69H141.531C141.531 52.34 145.761 56.21 156.921 56.21C167.091 56.21 170.421 52.34 170.421 44.42C170.421 37.67 167.001 34.34 160.341 34.34C155.031 34.34 150.801 36.41 147.201 41L131.001 31.64V4.55H179.781V17.24H145.401V26.24L142.701 34.34L145.671 36.05C149.091 26.15 155.751 21.65 164.661 21.65C175.821 21.65 184.821 29.48 184.821 44.06C184.821 61.52 173.661 68.9 156.921 68.9C140.181 68.9 127.041 61.97 127.041 44.69Z" fill="#D6D6C2"></path> </g> <defs> <clipPath id="clip0_10286_1735"> <rect width="175" height="80" fill="white"></rect> </clipPath> </defs> </svg> 